<svg xmlns="http://www.w3.org/2000/svg" xmlns:android="http://schemas.android.com/apk/res/android" width="15.286" height="18.215" viewportWidth="15.286" viewportHeight="18.215">
	<path fill="#fff" d="M12.806,9.635a3.909,3.909 0,0 0,2.48 3.74,11.219 11.219,0 0,1 -1.667,3.171 3.349,3.349 0,0 1,-2.48 1.667,4.4 4.4,0 0,1 -1.5,-0.366 4.575,4.575 0,0 0,-1.626 -0.366,4.735 4.735,0 0,0 -1.647,0.366 4.5,4.5 0,0 1,-1.4 0.366,2.6 2.6,0 0,1 -1.89,-0.976 9.371,9.371 0,0 1,-1.586 -2.114,15.418 15.418,0 0,1 -0.915,-1.992A10.4,10.4 0,0 1,0 9.839,5.432 5.432,0 0,1 1.4,5.854 4.6,4.6 0,0 1,4.675 4.391,5.7 5.7,0 0,1 6.424,4.8 6.7,6.7 0,0 0,7.806 5.2,2.282 2.282,0 0,0 8.4,5.062q0.427,-0.142 0.874,-0.325a5.913,5.913 0,0 1,1.037 -0.3,3.786 3.786,0 0,1 1.077,-0.081A4.443,4.443 0,0 1,14.839 6.18,3.729 3.729,0 0,0 12.806,9.635ZM10.489,2.927A3.308,3.308 0,0 1,7.684 4.35,3.664 3.664,0 0,1 8.7,1.423 4.226,4.226 0,0 1,9.96 0.447,3.666 3.666,0 0,1 11.465,0 3.935,3.935 0,0 1,10.489 2.927Z"/>
</svg>
