<svg
    xmlns="http://www.w3.org/2000/svg"
    viewBox="0 0 12 13"
    id="ic_back">
    <path
        id="path"
        d="M 9.232 0.833 C 8.188 0.272 7.012 0.005 5.829 0.059 C 4.645 0.114 3.498 0.489 2.511 1.144 L 1.543 0.186 C 1.455 0.098 1.343 0.037 1.221 0.013 C 1.099 -0.012 0.973 0 0.858 0.048 C 0.742 0.095 0.644 0.176 0.575 0.279 C 0.506 0.383 0.469 0.504 0.469 0.629 L 0.469 4.14 C 0.469 4.306 0.535 4.466 0.653 4.584 C 0.771 4.702 0.931 4.768 1.097 4.768 L 4.606 4.768 C 4.731 4.769 4.853 4.732 4.957 4.663 C 5.061 4.594 5.142 4.496 5.19 4.381 C 5.238 4.266 5.25 4.139 5.226 4.016 C 5.201 3.894 5.141 3.782 5.052 3.694 L 4.336 2.978 C 5.172 2.571 6.122 2.461 7.029 2.667 C 7.936 2.873 8.746 3.382 9.324 4.111 C 9.901 4.839 10.213 5.744 10.208 6.674 C 10.202 7.604 9.879 8.504 9.292 9.225 C 8.705 9.947 7.889 10.446 6.979 10.641 C 6.07 10.836 5.121 10.714 4.29 10.296 C 3.46 9.878 2.796 9.189 2.41 8.343 C 2.342 8.207 2.228 8.101 2.087 8.043 C 1.947 7.985 1.791 7.98 1.647 8.029 L 0.447 8.374 C 0.336 8.408 0.236 8.472 0.159 8.559 C 0.082 8.647 0.031 8.754 0.011 8.868 C -0.009 8.983 0.004 9.101 0.047 9.209 C 0.705 10.781 1.947 12.039 3.511 12.717 C 5.075 13.395 6.842 13.441 8.439 12.846 C 10.037 12.251 11.343 11.06 12.082 9.524 C 12.822 7.989 12.938 6.224 12.407 4.605 C 11.876 2.985 10.737 1.633 9.232 0.833 Z"
        fill="#ffffff"/>
</svg>
