<svg
    xmlns="http://www.w3.org/2000/svg"
    viewBox="0 0 26 26"
    id="ic_book">
    <path
        id="path"
        d="M 22.905 26 L 6.191 26 C 5.372 25.998 4.586 25.67 4.007 25.091 C 3.427 24.511 3.101 23.724 3.1 22.905 L 3.1 21.667 L 1.857 21.667 C 1.366 21.665 0.894 21.469 0.547 21.121 C 0.2 20.773 0.005 20.301 0.005 19.809 C 0.005 19.318 0.2 18.846 0.547 18.498 C 0.894 18.15 1.366 17.954 1.857 17.952 L 3.1 17.952 L 3.1 14.852 L 1.857 14.852 C 1.464 14.853 1.081 14.73 0.762 14.499 C 0.444 14.269 0.207 13.944 0.085 13.57 C -0.036 13.196 -0.036 12.794 0.085 12.42 C 0.207 12.046 0.444 11.721 0.762 11.491 C 1.081 11.26 1.464 11.137 1.857 11.138 L 3.1 11.138 L 3.1 8.038 L 1.857 8.038 C 1.365 8.038 0.892 7.842 0.544 7.494 C 0.196 7.146 0 6.673 0 6.181 C 0 5.689 0.196 5.216 0.544 4.868 C 0.892 4.52 1.365 4.324 1.857 4.324 L 3.1 4.324 L 3.1 3.1 C 3.1 2.28 3.426 1.492 4.005 0.911 C 4.584 0.33 5.371 0.002 6.191 0 L 22.905 0 C 23.726 0.001 24.514 0.329 25.094 0.91 C 25.674 1.491 26 2.279 26 3.1 L 26 22.905 C 25.999 23.725 25.672 24.512 25.092 25.092 C 24.512 25.672 23.725 25.999 22.905 26 Z M 10.524 14.548 C 10.262 14.547 10.007 14.629 9.794 14.783 C 9.582 14.937 9.424 15.154 9.343 15.403 C 9.262 15.652 9.262 15.92 9.343 16.169 C 9.424 16.418 9.582 16.635 9.794 16.789 C 10.007 16.943 10.262 17.025 10.524 17.024 L 15.477 17.024 C 15.805 17.024 16.12 16.893 16.352 16.661 C 16.584 16.429 16.715 16.114 16.715 15.786 C 16.715 15.458 16.584 15.143 16.352 14.911 C 16.12 14.679 15.805 14.548 15.477 14.548 Z M 10.524 8.976 C 10.262 8.975 10.007 9.057 9.794 9.211 C 9.582 9.365 9.424 9.582 9.343 9.831 C 9.262 10.08 9.262 10.348 9.343 10.597 C 9.424 10.846 9.582 11.063 9.794 11.217 C 10.007 11.371 10.262 11.453 10.524 11.452 L 18.571 11.452 C 18.899 11.452 19.214 11.321 19.446 11.089 C 19.678 10.857 19.809 10.542 19.809 10.214 C 19.809 9.886 19.678 9.571 19.446 9.339 C 19.214 9.107 18.899 8.976 18.571 8.976 Z"
        fill="#89a1e2"/>
</svg>
