<svg
    xmlns="http://www.w3.org/2000/svg"
    viewBox="0 0 43 43"
    id="ic_better">
    <path
        id="path"
        d="M 21.584 0 C 18.7 -0.015 15.844 0.564 13.193 1.7 C 8.016 3.891 3.889 8.013 1.693 13.188 C 0.559 15.832 -0.018 18.682 0 21.559 C -0.022 24.454 0.555 27.323 1.693 29.985 C 3.889 35.16 8.016 39.282 13.193 41.473 C 15.844 42.609 18.7 43.188 21.584 43.173 C 24.468 43.188 27.324 42.609 29.975 41.473 C 35.152 39.282 39.279 35.16 41.475 29.985 C 42.613 27.323 43.19 24.454 43.168 21.559 C 43.187 18.68 42.61 15.829 41.475 13.183 C 39.278 8.01 35.152 3.89 29.976 1.7 C 27.325 0.563 24.468 -0.015 21.584 0 Z M 31.947 29.3 Q 31.847 29.5 29.167 32.008 Q 26.487 34.516 21.585 34.513 Q 16.785 34.513 14.078 32.008 Q 11.371 29.503 11.222 29.351 C 11.057 29.124 10.938 28.866 10.873 28.592 C 10.808 28.318 10.798 28.035 10.843 27.757 C 10.88 27.473 10.972 27.2 11.116 26.952 C 11.259 26.705 11.45 26.488 11.677 26.315 C 11.904 26.149 12.162 26.031 12.435 25.965 C 12.708 25.9 12.992 25.89 13.269 25.935 C 13.546 25.968 13.814 26.06 14.053 26.204 C 14.293 26.348 14.499 26.541 14.659 26.77 Q 14.71 26.821 16.58 28.516 C 17.969 29.698 19.758 30.306 21.58 30.216 C 23.412 30.316 25.214 29.707 26.61 28.516 Q 28.455 26.816 28.455 26.77 C 28.796 26.312 29.305 26.006 29.869 25.919 C 30.434 25.832 31.011 25.971 31.474 26.305 C 31.938 26.639 32.251 27.143 32.347 27.706 C 32.401 27.985 32.393 28.272 32.324 28.547 C 32.255 28.823 32.126 29.08 31.947 29.3 Z"
        fill="#2fd8c4"/>
</svg>
