<svg
    xmlns="http://www.w3.org/2000/svg"
    viewBox="0 0 20 20"
    id="ic_check">
    <path
        id="path"
        d="M 10 10 M 0 10 C 0 7.349 1.054 4.804 2.929 2.929 C 4.804 1.054 7.349 0 10 0 C 12.651 0 15.196 1.054 17.071 2.929 C 18.946 4.804 20 7.349 20 10 C 20 12.651 18.946 15.196 17.071 17.071 C 15.196 18.946 12.651 20 10 20 C 7.349 20 4.804 18.946 2.929 17.071 C 1.054 15.196 0 12.651 0 10"
        fill="#ff8976"/>
    <path
        id="path_1"
        d="M 13.912 6.188 L 12.512 7.588 L 8.812 11.288 L 6.086 8.562 C 5.863 8.343 5.561 8.221 5.248 8.223 C 4.936 8.224 4.636 8.349 4.414 8.57 C 4.193 8.792 4.068 9.092 4.067 9.404 C 4.065 9.717 4.187 10.019 4.406 10.242 L 7.971 13.807 C 8.194 14.03 8.497 14.155 8.812 14.155 C 9.127 14.155 9.43 14.03 9.653 13.807 L 15.594 7.866 C 15.816 7.643 15.94 7.34 15.94 7.026 C 15.939 6.711 15.814 6.409 15.591 6.187 C 15.369 5.964 15.067 5.839 14.752 5.838 C 14.438 5.838 14.135 5.962 13.912 6.184 Z"
        fill="#ffffff"/>
</svg>
