<svg
    xmlns="http://www.w3.org/2000/svg"
    viewBox="0 0 18 18"
    id="ic_close">
    <path
        id="path"
        d="M 0.482 16.2 C 0.289 16.329 0.142 16.517 0.064 16.735 C -0.014 16.954 -0.02 17.193 0.049 17.415 C 0.117 17.637 0.255 17.831 0.443 17.968 C 0.58 18.156 0.774 18.294 0.996 18.362 C 1.218 18.431 1.457 18.425 1.676 18.347 C 1.894 18.269 2.082 18.122 2.211 17.929 L 9.2 11.011 L 16.2 17.927 C 16.329 18.12 16.517 18.267 16.735 18.345 C 16.954 18.423 17.193 18.429 17.415 18.36 C 17.637 18.292 17.831 18.154 17.968 17.966 C 18.156 17.829 18.294 17.635 18.362 17.413 C 18.431 17.191 18.425 16.952 18.347 16.733 C 18.269 16.515 18.122 16.327 17.929 16.198 L 11.011 9.2 L 17.927 2.21 C 18.12 2.081 18.267 1.893 18.345 1.675 C 18.423 1.456 18.429 1.217 18.36 0.995 C 18.292 0.773 18.154 0.579 17.966 0.442 C 17.829 0.255 17.635 0.117 17.413 0.049 C 17.191 -0.019 16.953 -0.013 16.735 0.065 C 16.516 0.143 16.329 0.289 16.2 0.482 L 9.2 7.4 L 2.21 0.482 C 2.081 0.288 1.894 0.142 1.675 0.063 C 1.456 -0.015 1.218 -0.02 0.996 0.048 C 0.773 0.116 0.579 0.254 0.442 0.442 C 0.254 0.579 0.116 0.773 0.048 0.996 C -0.02 1.218 -0.015 1.456 0.063 1.675 C 0.142 1.894 0.288 2.081 0.482 2.21 L 7.4 9.2 Z"
        fill="#c6d2e0"/>
</svg>
