<svg
    xmlns="http://www.w3.org/2000/svg"
    viewBox="0 0 512 512"
    id="ic_eye_close">
    <path
        id="path"
        d="M 38.2 49.3 C 30.4 57.1 24 64 24 64.5 C 24 65.1 38.1 79.6 55.4 96.9 L 86.8 128.3 L 77.6 136 C 47.6 161.4 21.5 196.2 5.3 232.4 L -0.1 244.3 L 4.1 253.9 C 28.5 309.5 70.5 355.3 124.5 385.2 C 183.2 417.6 256.2 427.2 321.5 410.9 C 330.2 408.7 353.6 401.3 356 399.9 C 357.1 399.3 366.8 408.4 396.5 438 L 435.5 477 L 450.3 462.2 L 465 447.5 L 258.7 241.2 L 52.5 35 L 38.2 49.3 Z M 170.2 211.7 L 187.8 229.5 L 186.8 236 C 184.9 248.8 187.1 261 193.5 274.5 C 202.2 292.5 216.4 304.9 235.5 311.1 C 241.4 313 244.7 313.4 257.3 313.5 L 272 313.5 L 289.5 331 L 307 348.4 L 299.2 351.6 C 271.7 363 241 363.3 213.3 352.5 C 175.9 337.8 148.3 303.8 141.4 263.9 C 139 250 139.9 229.7 143.4 216.6 C 145.9 207.2 151 194 152 194 C 152.3 194 160.5 202 170.2 211.7 Z"
        fill="#000000"
        stroke="#00000000"/>
    <path
        id="path_1"
        d="M 226.5 71.5 C 210.5 73.3 192.1 77.1 177.5 81.6 C 170.9 83.6 165.2 85.6 164.8 85.9 C 164.4 86.3 175.2 97.7 188.9 111.4 L 213.7 136.2 L 222.1 133.5 C 250.3 124.6 279.5 126.8 306.6 140 C 346.6 159.4 372 199.8 372 244.1 C 372 256.3 370 269.2 366.5 279.4 L 364.1 286.5 L 397.8 320.2 C 416.3 338.8 432 354 432.7 354 C 434.7 354 461.9 326.3 470.1 316 C 485.4 296.8 498.4 275.3 508.3 253 L 512.1 244.4 L 507.6 234.3 C 498.4 213.6 484.7 191 470.4 173 C 461.2 161.4 437.6 138 426 129.1 C 386.6 98.5 344.2 80.3 295.8 72.9 C 278.3 70.2 243.4 69.5 226.5 71.5 Z"
        fill="#000000"
        stroke="#00000000"/>
    <path
        id="path_2"
        d="M 288.5 211 C 308.3 230.8 324.9 247 325.4 247 C 326.3 247 325.6 237.7 323.9 229 C 322.5 221.7 316.1 208.2 311 201.7 C 298.6 185.8 277.5 175 259.1 175 L 252.5 175 L 288.5 211 Z"
        fill="#000000"
        stroke="#00000000"/>
</svg>
