<svg xmlns="http://www.w3.org/2000/svg" xmlns:android="http://schemas.android.com/apk/res/android" width="17.776" height="14.555" viewportWidth="17.776" viewportHeight="14.555">
	<path fill="#fff" d="M15.351,0H2.426A2.336,2.336 0,0 0,0.692 0.7,2.361 2.361,0 0,0 0,2.426v9.7a2.364,2.364 0,0 0,2.426 2.426H15.351a2.364,2.364 0,0 0,2.426 -2.426v-9.7A2.361,2.361 0,0 0,17.085 0.7,2.336 2.336,0 0,0 15.351,0ZM2.426,1.63H15.351a0.782,0.782 0,0 1,0.426 0.114,0.937 0.937,0 0,1 0.313,0.36l-7.2,5.022L1.687,2.1A0.937,0.937 0,0 1,2 1.744,0.782 0.782,0 0,1 2.426,1.63ZM15.351,12.944H2.426a0.807,0.807 0,0 1,-0.6 -0.218,0.807 0.807,0 0,1 -0.218,-0.6V3.961L8.4,8.737q0.133,0.057 0.256,0.114a0.522,0.522 0,0 0,0.474 0q0.123,-0.057 0.256,-0.114l6.785,-4.776v8.168a0.753,0.753 0,0 1,-0.815 0.815Z"/>
</svg>
