<svg xmlns="http://www.w3.org/2000/svg" xmlns:android="http://schemas.android.com/apk/res/android" width="16.297" height="16.564" viewportWidth="16.297" viewportHeight="16.564">
	<path fill="#fff" d="M16.3,8.482a7.964,7.964 0,0 1,-2.221 5.811,7.743 7.743,0 0,1 -5.794,2.271 7.983,7.983 0,0 1,-5.861 -2.421A7.983,7.983 0,0 1,0 8.282,7.983 7.983,0 0,1 2.421,2.421 7.983,7.983 0,0 1,8.282 0a7.8,7.8 0,0 1,5.544 2.171L11.588,4.341A4.343,4.343 0,0 0,9.033 3.122a5.1,5.1 0,0 0,-4.976 2.2,4.956 4.956,0 0,0 -0.918,2.955 5.108,5.108 0,0 0,1.5 3.707,4.9 4.9,0 0,0 3.64,1.536 5.367,5.367 0,0 0,2.087 -0.384,3.878 3.878,0 0,0 1.436,-0.968 5.409,5.409 0,0 0,0.8 -1.152,4.3 4.3,0 0,0 0.384,-1.069H8.282V7.08h7.881A7.847,7.847 0,0 1,16.3 8.482Z"/>
</svg>
