<svg
    xmlns="http://www.w3.org/2000/svg"
    viewBox="0 0 35 31"
    id="ic_heart">
    <path
        id="path"
        d="M 32.375 2.927 L 32.375 2.927 C 31.475 1.997 30.397 1.258 29.205 0.755 C 28.013 0.252 26.732 -0.004 25.438 0 L 25.438 0 C 24.124 0.003 22.823 0.26 21.608 0.759 C 20.384 1.246 19.276 1.984 18.356 2.927 L 18.356 2.927 L 17.742 3.541 L 17.128 2.927 C 16.221 1.993 15.132 1.255 13.928 0.759 C 12.697 0.25 11.377 -0.008 10.045 0 C 8.751 -0.005 7.469 0.252 6.277 0.755 C 5.085 1.258 4.007 1.997 3.107 2.927 C 2.156 3.859 1.39 4.962 0.849 6.179 C 0.294 7.38 0.005 8.686 0 10.009 C 0.003 11.324 0.267 12.626 0.777 13.839 C 1.271 15.055 2.002 16.161 2.927 17.091 L 16.513 30.677 C 16.65 30.816 16.809 30.932 16.983 31.02 C 17.175 31.109 17.385 31.152 17.597 31.146 C 17.797 31.15 17.995 31.107 18.175 31.02 C 18.357 30.927 18.527 30.812 18.681 30.677 L 32.23 17.091 C 33.235 16.171 34.035 15.049 34.579 13.8 C 35.102 12.604 35.373 11.312 35.374 10.006 C 35.374 8.707 35.129 7.42 34.651 6.212 C 34.134 4.968 33.358 3.848 32.375 2.927 Z M 30.243 14.959 L 17.743 27.425 L 5.239 14.959 C 4.579 14.316 4.057 13.545 3.703 12.695 C 3.349 11.844 3.171 10.93 3.179 10.009 C 3.171 9.088 3.349 8.174 3.703 7.323 C 4.057 6.473 4.579 5.702 5.239 5.059 C 5.853 4.393 6.614 3.879 7.461 3.559 C 8.285 3.24 9.16 3.074 10.044 3.071 C 10.94 3.067 11.829 3.233 12.664 3.559 C 13.521 3.901 14.301 4.411 14.958 5.059 L 16.658 6.759 C 16.844 6.957 17.08 7.101 17.342 7.174 C 17.604 7.247 17.88 7.247 18.142 7.174 C 18.404 7.101 18.64 6.957 18.826 6.759 L 20.38 5.059 L 20.38 5.059 C 21.059 4.454 21.835 3.965 22.674 3.614 C 23.549 3.249 24.49 3.064 25.438 3.072 L 25.438 3.072 C 26.351 3.067 27.256 3.251 28.094 3.614 C 28.927 3.977 29.701 4.464 30.388 5.059 L 30.388 5.059 C 30.986 5.751 31.473 6.531 31.833 7.372 C 32.192 8.205 32.377 9.103 32.375 10.01 C 32.376 10.919 32.186 11.818 31.815 12.648 C 31.432 13.505 30.899 14.288 30.243 14.959 Z"
        fill="#ff5353"/>
</svg>
