<svg
    xmlns="http://www.w3.org/2000/svg"
    viewBox="0 0 4 17"
    id="ic_information">
    <path
        id="path"
        d="M 0.383 16.019 L 0.383 8.519 C 0.383 8.119 0.51 7.729 0.745 7.406 C 0.98 7.082 1.311 6.841 1.692 6.718 C 2.072 6.594 2.482 6.594 2.862 6.718 C 3.243 6.841 3.574 7.082 3.809 7.406 C 4.044 7.729 4.171 8.119 4.171 8.519 L 4.171 16.019 C 4.171 16.521 3.971 17.003 3.616 17.358 C 3.261 17.713 2.779 17.913 2.277 17.913 C 1.775 17.913 1.293 17.713 0.938 17.358 C 0.583 17.003 0.383 16.521 0.383 16.019 Z M 2.277 4.556 C 1.674 4.556 1.094 4.315 0.668 3.889 C 0.242 3.462 0.002 2.882 0.002 2.279 C 0.003 1.675 0.243 1.096 0.67 0.67 C 1.097 0.243 1.676 0.004 2.279 0.004 C 2.883 0.004 3.462 0.244 3.888 0.671 C 4.315 1.098 4.554 1.678 4.554 2.281 C 4.554 2.884 4.314 3.464 3.887 3.89 C 3.676 4.101 3.424 4.269 3.148 4.383 C 2.872 4.497 2.576 4.556 2.277 4.556 Z"
        fill="#ffffff"/>
</svg>
