<svg
    xmlns="http://www.w3.org/2000/svg"
    viewBox="0 0 16 13"
    id="ic_next">
    <path
        id="path"
        d="M 16.41 5.747 L 9.641 0.28 C 9.425 0.089 9.141 -0.01 8.853 0.005 C 8.565 0.021 8.294 0.15 8.099 0.363 C 7.904 0.577 7.802 0.858 7.813 1.147 L 7.813 5.147 L 1.83 0.28 C 1.614 0.088 1.33 -0.012 1.041 0.004 C 0.752 0.019 0.481 0.147 0.286 0.361 C 0.091 0.575 -0.012 0.858 0 1.147 L 0 12.1 C -0.011 12.389 0.091 12.67 0.286 12.884 C 0.481 13.097 0.752 13.226 1.04 13.242 C 1.328 13.257 1.612 13.158 1.828 12.967 L 7.828 8.078 L 7.828 12.1 C 7.817 12.389 7.919 12.67 8.114 12.884 C 8.309 13.097 8.58 13.226 8.868 13.242 C 9.156 13.257 9.44 13.158 9.656 12.967 L 16.41 7.481 C 16.586 7.343 16.716 7.155 16.782 6.942 C 16.849 6.729 16.849 6.5 16.782 6.287 C 16.716 6.074 16.586 5.886 16.41 5.748 Z"
        fill="#ffffff"/>
</svg>
