<svg
    xmlns="http://www.w3.org/2000/svg"
    viewBox="0 0 43 43"
    id="ic_neutral">
    <path
        id="path"
        d="M 21.584 0 C 18.7 -0.015 15.844 0.564 13.193 1.7 C 8.016 3.891 3.889 8.013 1.693 13.188 C 0.559 15.832 -0.018 18.682 0 21.559 C -0.017 24.445 0.56 27.304 1.693 29.959 C 3.878 35.148 8.007 39.282 13.193 41.472 C 15.844 42.608 18.7 43.187 21.584 43.172 C 24.468 43.187 27.324 42.608 29.975 41.472 C 35.152 39.281 39.279 35.159 41.475 29.984 C 42.613 27.322 43.19 24.453 43.168 21.558 C 43.187 18.679 42.61 15.828 41.475 13.182 C 39.278 8.009 35.152 3.889 29.976 1.7 C 27.325 0.563 24.468 -0.015 21.584 0 Z M 28.054 32.39 L 15.114 32.39 C 14.537 32.39 13.983 32.161 13.575 31.753 C 13.167 31.345 12.938 30.791 12.938 30.214 C 12.938 29.637 13.167 29.083 13.575 28.675 C 13.983 28.267 14.537 28.038 15.114 28.038 L 28.055 28.038 C 28.632 28.038 29.186 28.267 29.594 28.675 C 30.002 29.083 30.231 29.637 30.231 30.214 C 30.231 30.791 30.002 31.345 29.594 31.753 C 29.186 32.161 28.632 32.39 28.055 32.39 Z"
        fill="#f7f36b"/>
</svg>
