<svg
    xmlns="http://www.w3.org/2000/svg"
    viewBox="0 0 13 20"
    id="ic_pause">
    <path
        id="path"
        d="M 8.718 17.921 L 8.718 2.422 C 8.72 1.781 8.976 1.167 9.43 0.714 C 9.884 0.262 10.499 0.008 11.14 0.008 C 11.781 0.008 12.396 0.262 12.85 0.714 C 13.304 1.167 13.56 1.781 13.562 2.422 L 13.562 17.922 C 13.56 18.563 13.304 19.177 12.85 19.63 C 12.396 20.082 11.781 20.336 11.14 20.336 C 10.499 20.336 9.884 20.082 9.43 19.63 C 8.976 19.177 8.72 18.563 8.718 17.922 Z M 0 17.921 L 0 2.422 C 0 1.78 0.255 1.163 0.709 0.709 C 1.163 0.255 1.78 0 2.422 0 C 3.064 0 3.681 0.255 4.135 0.709 C 4.589 1.163 4.844 1.78 4.844 2.422 L 4.844 17.922 C 4.844 18.564 4.589 19.181 4.135 19.635 C 3.681 20.089 3.064 20.344 2.422 20.344 C 1.78 20.344 1.163 20.089 0.709 19.635 C 0.255 19.181 0 18.564 0 17.922 Z"
        fill="#ffffff"/>
</svg>
