<svg
    xmlns="http://www.w3.org/2000/svg"
    viewBox="0 0 30 30"
    id="ic_play">
    <path
        id="path"
        d="M 7.461 2.012 C 9.747 0.676 12.352 -0.019 15 0 C 17.645 -0.02 20.247 0.675 22.529 2.012 C 24.796 3.322 26.678 5.204 27.988 7.471 C 29.325 9.753 30.02 12.355 30 15 C 30.02 17.645 29.325 20.247 27.988 22.529 C 26.678 24.796 24.796 26.678 22.529 27.988 C 20.247 29.325 17.645 30.02 15 30 C 12.355 30.02 9.753 29.325 7.471 27.988 C 5.204 26.678 3.322 24.796 2.012 22.529 C 0.675 20.247 -0.02 17.645 0 15 C -0.02 12.355 0.675 9.753 2.012 7.471 C 3.32 5.206 5.199 3.324 7.461 2.012 Z M 22.5 16.074 C 22.754 15.929 22.948 15.699 23.049 15.425 C 23.149 15.151 23.149 14.849 23.049 14.575 C 22.948 14.301 22.754 14.071 22.5 13.926 L 11.875 7.676 C 11.69 7.555 11.474 7.489 11.253 7.485 C 11.032 7.482 10.814 7.541 10.625 7.656 C 10.43 7.762 10.268 7.921 10.157 8.114 C 10.047 8.308 9.993 8.528 10 8.75 L 10 21.25 C 9.993 21.472 10.047 21.692 10.157 21.886 C 10.268 22.079 10.43 22.238 10.625 22.344 C 10.818 22.444 11.032 22.498 11.25 22.5 C 11.471 22.5 11.687 22.439 11.875 22.324 Z"
        fill="#ffffff"/>
</svg>
