<svg xmlns="http://www.w3.org/2000/svg" xmlns:android="http://schemas.android.com/apk/res/android" width="154.924" height="100" viewportWidth="154.924" viewportHeight="100">
	<path fill="#2ed8c4" d="M15.888,50.291a2.391,2.391 0,0 1,-3.727 -0.268,27.529 27.529,0 0,1 -4.31,-9.711 35.215,35.215 0,0 0,-6.728 4.134,2.895 2.895,0 0,0 -0.462,4.13 57,57 0,0 0,39.307 20.6,2.941 2.941,0 0,0 3.029,-3.778 152.131,152.131 0,0 0,-9.656 -23.779A28.422,28.422 0,0 0,15.888 50.291Z"/>
	<path fill="#ff8976" d="M89.24,19.7C83.691,7.371 69.565,0 51.465,0h-0.717A58.928,58.928 0,0 0,32.485 3.121c-12.819,4.458 -21,12.87 -24.338,25a25.1,25.1 0,0 0,-0.3 12.218A37.254,37.254 0,0 1,28.587 37.42,5.355 5.355,0 0,1 32.675,40.3c0.227,0.462 0.462,0.893 0.666,1.336a32.908,32.908 0,0 1,4.856 -0.245c4.791,0.1 9.651,1.669 15.284,3.491 1.165,0.379 2.363,0.768 3.6,1.156C70.104,50.11 80.981,48.6 86.928,41.9 91.954,36.237 92.833,27.746 89.24,19.7Z"/>
	<path fill="#1c5557" d="M28.587,37.422A37.254,37.254 0,0 0,7.851 40.336a27.529,27.529 0,0 0,4.31 9.711,2.391 2.391,0 0,0 3.727,0.268 28.421,28.421 0,0 1,17.452 -8.7c-0.222,-0.462 -0.462,-0.888 -0.666,-1.336A5.355,5.355 0,0 0,28.587 37.422Z"/>
	<path fill="#fff" d="M51.238,99.494L51.238,73.983h6.137v4.389c1.327,-3.269 4.051,-5.448 8.671,-4.384v5.549c-4.712,-0.985 -8.671,0.772 -8.671,6.215v13.748Z"/>
	<path fill="#fff" d="M70.367,99.491L70.367,63.763h6.137v13.873a7.966,7.966 0,0 1,7.4 -4.162c6.308,0 9.512,4.319 9.512,10.636v15.381h-6.137v-14.46c0,-3.852 -1.716,-6.211 -5.2,-6.211s-5.577,2.358 -5.577,6.211v14.46Z"/>
	<path fill="#fff" d="M97.76,86.733c0,-7.154 4.624,-13.263 12.606,-13.263 8.157,0 13.378,6.812 12.449,14.8L104.072,88.27c0.222,3.94 2.913,6.6 6.705,6.6a6.208,6.208 0,0 0,6.067 -3.7l5.184,1.545a11.566,11.566 0,0 1,-11.251 7.288c-7.968,0 -13.022,-6.109 -13.022,-13.263ZM116.66,84.291a6.312,6.312 0,0 0,-12.588 0Z"/>
	<path fill="#fff" d="M149.263,99.501l-1.258,-5.295c-1.526,3.8 -5.272,5.79 -9.577,5.79 -6.664,0 -11.9,-5.272 -11.9,-13.263s5.239,-13.263 11.9,-13.263a9.687,9.687 0,0 1,8.416 4.384L146.844,73.98h6.137v15.321l1.942,10.206ZM146.706,86.733c0,-4.809 -3.108,-7.75 -6.872,-7.75s-6.876,2.941 -6.876,7.75 3.1,7.75 6.876,7.75S146.706,91.556 146.706,86.733Z"/>
</svg>
