<svg xmlns="http://www.w3.org/2000/svg" xmlns:android="http://schemas.android.com/apk/res/android" width="60.011" height="45.407" viewportWidth="60.011" viewportHeight="45.407">
	<path fill="#2ed8c4" d="M10.4309,33.012a1.573,1.573 0,0 1,-2.448 -0.178,18.128 18.128,0 0,1 -2.828,-6.356 23.04,23.04 0,0 0,-4.417 2.7,1.9 1.9,0 0,0 -0.312,2.709 37.417,37.417 0,0 0,25.8 13.519,1.932 1.932,0 0,0 1.983,-2.48 97.775,97.775 0,0 0,-6.321 -15.6A18.644,18.644 0,0 0,10.4309 33.012Z"/>
	<path fill="#ff8976" d="M58.5669,12.9331c-3.639,-8.094 -12.9,-12.926 -24.781,-12.926h-0.068c-0.009,0 -0.15,0 -0.4,0a38.6,38.6 0,0 0,-11.989 2.05c-8.412,2.924 -13.786,8.444 -15.972,16.407a16.461,16.461 0,0 0,-0.195 8.02,24.366 24.366,0 0,1 13.61,-1.917 3.506,3.506 0,0 1,2.681 1.888c0.149,0.293 0.294,0.585 0.439,0.877a22.241,22.241 0,0 1,3.185 -0.161c3.145,0.065 6.336,1.1 10.032,2.294 0.764,0.247 1.551,0.5 2.365,0.757 8.545,2.675 15.686,1.685 19.589,-2.713C60.3589,23.7861 60.936,18.2031 58.5669,12.9331Z"/>
	<path fill="#1c5557" d="M18.7688,24.5601a24.369,24.369 0,0 0,-13.611 1.917,18.128 18.128,0 0,0 2.827,6.356 1.573,1.573 0,0 0,2.449 0.178,18.642 18.642,0 0,1 11.454,-5.687c-0.145,-0.292 -0.29,-0.583 -0.439,-0.876A3.508,3.508 0,0 0,18.7688 24.5601Z"/>
</svg>
