<svg
    xmlns="http://www.w3.org/2000/svg"
    viewBox="0 0 24 24"
    id="ic_stage">
    <path
        id="path"
        d="M 3 11 L 3 11 C 3.795 11 4.559 11.316 5.121 11.879 C 5.684 12.441 6 13.205 6 14 L 6 21 C 6 21.795 5.684 22.559 5.121 23.121 C 4.559 23.684 3.795 24 3 24 L 3 24 C 2.205 24 1.441 23.684 0.879 23.121 C 0.316 22.559 0 21.795 0 21 L 0 14 C 0 13.205 0.316 12.441 0.879 11.879 C 1.441 11.316 2.205 11 3 11 Z"
        fill="#2fd8c4"/>
    <path
        id="path_1"
        d="M 12 0 L 12 0 C 12.795 0 13.559 0.316 14.121 0.879 C 14.684 1.441 15 2.205 15 3 L 15 21 C 15 21.795 14.684 22.559 14.121 23.121 C 13.559 23.684 12.795 24 12 24 L 12 24 C 11.205 24 10.441 23.684 9.879 23.121 C 9.316 22.559 9 21.795 9 21 L 9 3 C 9 2.205 9.316 1.441 9.879 0.879 C 10.441 0.316 11.205 0 12 0 Z"
        fill="#2fd8c4"/>
    <path
        id="path_2"
        d="M 21 5 L 21 5 C 21.795 5 22.559 5.316 23.121 5.879 C 23.684 6.441 24 7.205 24 8 L 24 21 C 24 21.795 23.684 22.559 23.121 23.121 C 22.559 23.684 21.795 24 21 24 L 21 24 C 20.205 24 19.441 23.684 18.879 23.121 C 18.316 22.559 18 21.795 18 21 L 18 8 C 18 7.205 18.316 6.441 18.879 5.879 C 19.441 5.316 20.205 5 21 5 Z"
        fill="#2fd8c4"/>
</svg>
