<svg
    xmlns="http://www.w3.org/2000/svg"
    viewBox="0 0 24 24"
    id="ic_settings">
    <path
        id="path"
        d="M 23.681 6.943 C 23.478 6.505 23.153 6.134 22.745 5.875 C 22.337 5.616 21.864 5.479 21.381 5.481 C 20.528 5.539 19.683 5.283 19.006 4.761 C 18.461 4.1 18.18 3.26 18.217 2.404 C 18.202 1.922 18.05 1.453 17.778 1.055 C 17.506 0.656 17.125 0.344 16.681 0.155 C 16.229 -0.011 15.738 -0.044 15.267 0.059 C 14.797 0.163 14.365 0.4 14.025 0.741 C 13.46 1.383 12.682 1.802 11.835 1.921 C 10.984 1.842 10.191 1.449 9.612 0.82 C 9.262 0.488 8.825 0.263 8.351 0.172 C 7.878 0.081 7.388 0.126 6.94 0.304 C 6.502 0.507 6.13 0.832 5.871 1.24 C 5.611 1.647 5.473 2.121 5.474 2.604 C 5.532 3.457 5.276 4.303 4.754 4.98 C 4.095 5.524 3.258 5.807 2.404 5.774 C 1.922 5.79 1.454 5.944 1.055 6.216 C 0.657 6.489 0.344 6.869 0.154 7.313 C -0.012 7.766 -0.045 8.256 0.058 8.727 C 0.162 9.198 0.398 9.629 0.739 9.97 C 1.381 10.535 1.801 11.311 1.92 12.158 C 1.842 13.009 1.449 13.802 0.82 14.381 C 0.486 14.731 0.26 15.169 0.169 15.643 C 0.077 16.118 0.124 16.608 0.304 17.057 C 0.507 17.496 0.832 17.867 1.239 18.127 C 1.647 18.387 2.121 18.524 2.604 18.523 C 3.457 18.465 4.302 18.721 4.979 19.243 C 5.525 19.902 5.807 20.74 5.771 21.595 C 5.785 22.078 5.938 22.546 6.211 22.945 C 6.483 23.343 6.864 23.655 7.309 23.844 C 7.761 24.01 8.252 24.044 8.723 23.94 C 9.193 23.836 9.625 23.599 9.965 23.258 C 10.528 22.614 11.306 22.198 12.154 22.087 C 13.006 22.173 13.798 22.567 14.381 23.193 C 14.726 23.534 15.165 23.764 15.641 23.854 C 16.118 23.943 16.61 23.888 17.055 23.696 C 17.5 23.504 17.878 23.183 18.139 22.774 C 18.4 22.366 18.534 21.889 18.522 21.404 C 18.464 20.551 18.72 19.705 19.242 19.028 C 19.902 18.483 20.741 18.203 21.596 18.243 C 22.081 18.24 22.555 18.091 22.955 17.817 C 23.356 17.543 23.665 17.155 23.844 16.704 C 24.023 16.253 24.062 15.758 23.958 15.284 C 23.854 14.81 23.61 14.378 23.259 14.043 C 22.613 13.48 22.193 12.701 22.076 11.852 C 22.155 10.999 22.549 10.206 23.182 9.629 C 23.509 9.274 23.73 8.833 23.819 8.358 C 23.907 7.884 23.86 7.393 23.682 6.944 Z M 13.843 16.29 L 13.843 16.29 C 13.178 16.289 12.539 16.024 12.069 15.553 C 11.599 15.082 11.335 14.443 11.336 13.777 C 11.336 13.112 11.601 12.473 12.072 12.003 C 12.542 11.532 13.181 11.268 13.847 11.268 C 14.512 11.268 15.151 11.532 15.621 12.003 C 16.092 12.473 16.357 13.112 16.357 13.777 C 16.358 14.443 16.094 15.082 15.624 15.553 C 15.154 16.024 14.515 16.289 13.85 16.29 Z"
        fill="#eff3fa"/>
</svg>
