<svg
    xmlns="http://www.w3.org/2000/svg"
    viewBox="0 0 16 13"
    id="ic_share_tv">
    <path
        id="path"
        d="M 3.431 13.722 C 3.314 13.716 3.203 13.667 3.12 13.585 C 3.036 13.503 2.986 13.393 2.977 13.277 C 2.969 13.16 3.004 13.044 3.075 12.951 L 4.6 10.874 L 1.962 10.874 C 1.428 10.858 0.921 10.63 0.553 10.242 C 0.186 9.853 -0.013 9.335 0 8.8 L 0 2.077 C -0.014 1.542 0.184 1.022 0.552 0.633 C 0.92 0.244 1.427 0.016 1.962 0 L 14.539 0 C 15.074 0.016 15.581 0.244 15.948 0.634 C 16.316 1.023 16.514 1.542 16.5 2.077 L 16.5 8.8 C 16.515 9.335 16.316 9.855 15.949 10.244 C 15.581 10.633 15.074 10.862 14.539 10.878 L 11.9 10.878 L 13.422 12.955 C 13.493 13.048 13.527 13.164 13.519 13.28 C 13.51 13.397 13.46 13.506 13.377 13.588 C 13.294 13.67 13.184 13.719 13.067 13.726 Z M 14.538 9.322 C 14.673 9.318 14.801 9.26 14.894 9.162 C 14.986 9.064 15.036 8.933 15.033 8.798 L 15.033 2.077 C 15.035 1.987 15.014 1.898 14.971 1.819 C 14.928 1.74 14.865 1.674 14.788 1.627 C 14.711 1.581 14.623 1.555 14.533 1.553 L 1.962 1.553 C 1.872 1.555 1.784 1.581 1.707 1.627 C 1.63 1.674 1.567 1.74 1.524 1.819 C 1.481 1.898 1.46 1.987 1.462 2.077 L 1.462 8.8 C 1.46 8.89 1.481 8.979 1.524 9.058 C 1.567 9.137 1.63 9.203 1.707 9.25 C 1.784 9.296 1.872 9.322 1.962 9.324 L 5.735 9.324 L 7.895 6.372 C 7.949 6.296 8.026 6.239 8.114 6.21 C 8.203 6.18 8.299 6.18 8.388 6.21 C 8.476 6.239 8.553 6.296 8.607 6.372 L 10.766 9.32 Z"
        fill="#ffffff"/>
</svg>
