<svg
    xmlns="http://www.w3.org/2000/svg"
    viewBox="0 0 34 34"
    id="ic_timer">
    <path
        id="path"
        d="M 17.485 34.969 C 12.872 34.934 8.456 33.075 5.207 29.801 C 1.958 26.527 0.132 22.097 0.132 17.485 C 0.132 12.872 1.958 8.442 5.207 5.168 C 8.456 1.894 12.872 0.035 17.485 0 C 17.865 0.01 18.226 0.168 18.491 0.44 C 18.756 0.712 18.905 1.078 18.905 1.458 C 18.905 1.837 18.756 2.203 18.491 2.475 C 18.226 2.747 17.865 2.905 17.485 2.915 C 14.185 2.915 10.98 4.036 8.4 6.093 C 5.819 8.151 4.013 11.025 3.278 14.243 C 2.544 17.46 2.924 20.834 4.356 23.808 C 5.788 26.781 8.188 29.182 11.161 30.614 C 14.135 32.046 17.508 32.426 20.726 31.692 C 23.944 30.957 26.818 29.151 28.876 26.571 C 30.934 23.991 32.055 20.786 32.055 17.486 C 32.047 17.173 32.14 16.866 32.32 16.609 C 32.5 16.353 32.757 16.162 33.055 16.064 C 33.352 15.965 33.673 15.965 33.97 16.064 C 34.268 16.162 34.525 16.353 34.705 16.609 C 34.885 16.866 34.978 17.173 34.97 17.486 C 34.966 22.12 33.121 26.568 29.844 29.844 C 26.568 33.121 22.12 34.966 17.486 34.97 Z M 17.485 2.914 C 17.1 2.909 16.73 2.758 16.451 2.492 C 16.185 2.213 16.035 1.843 16.029 1.458 C 16.034 1.072 16.184 0.703 16.45 0.423 C 16.732 0.163 17.101 0.018 17.485 0.018 C 17.868 0.018 18.237 0.163 18.519 0.423 C 18.785 0.702 18.935 1.072 18.941 1.457 C 18.936 1.842 18.785 2.212 18.519 2.491 C 18.24 2.757 17.87 2.907 17.485 2.913 Z M 30.948 11.9 C 30.821 11.595 30.801 11.255 30.892 10.937 C 30.983 10.619 31.18 10.341 31.449 10.149 C 31.718 9.958 32.045 9.863 32.375 9.881 C 32.706 9.899 33.02 10.029 33.267 10.249 C 33.514 10.469 33.679 10.766 33.735 11.092 C 33.791 11.418 33.734 11.754 33.574 12.043 C 33.415 12.333 33.161 12.56 32.856 12.687 C 32.68 12.759 32.493 12.798 32.303 12.803 C 32.013 12.806 31.729 12.722 31.487 12.561 C 31.246 12.401 31.058 12.171 30.948 11.903 Z M 27.784 7.184 C 27.511 6.909 27.358 6.537 27.358 6.149 C 27.358 5.762 27.511 5.39 27.784 5.115 C 27.964 4.935 28.189 4.805 28.435 4.739 C 28.681 4.673 28.941 4.673 29.187 4.739 C 29.433 4.805 29.658 4.935 29.838 5.115 C 30.111 5.39 30.265 5.762 30.265 6.149 C 30.265 6.537 30.111 6.909 29.838 7.184 C 29.567 7.453 29.201 7.605 28.819 7.606 C 28.433 7.604 28.062 7.453 27.784 7.184 Z M 23.065 4.021 C 22.779 3.903 22.538 3.698 22.376 3.434 C 22.214 3.171 22.14 2.863 22.164 2.554 C 22.188 2.246 22.31 1.953 22.511 1.718 C 22.712 1.483 22.983 1.318 23.284 1.247 C 23.585 1.176 23.901 1.202 24.186 1.321 C 24.496 1.452 24.752 1.686 24.909 1.983 C 25.066 2.281 25.116 2.624 25.049 2.954 C 24.982 3.284 24.803 3.58 24.542 3.793 C 24.281 4.006 23.955 4.122 23.618 4.121 C 23.429 4.125 23.241 4.091 23.065 4.021 Z M 33.512 18.942 C 33.131 18.938 32.766 18.782 32.499 18.51 C 32.232 18.238 32.084 17.871 32.087 17.49 C 32.09 17.108 32.244 16.744 32.516 16.476 C 32.787 16.208 33.154 16.058 33.535 16.06 C 33.916 16.062 34.281 16.215 34.55 16.485 C 34.819 16.756 34.97 17.122 34.969 17.503 C 34.968 17.885 34.817 18.25 34.547 18.52 C 34.268 18.786 33.898 18.937 33.512 18.942 Z M 23.312 21.856 C 23.086 21.856 22.864 21.804 22.662 21.703 L 16.833 18.789 C 16.591 18.668 16.388 18.483 16.246 18.253 C 16.103 18.024 16.028 17.759 16.027 17.489 L 16.027 7.285 C 16.019 6.972 16.112 6.665 16.292 6.408 C 16.472 6.152 16.729 5.961 17.027 5.863 C 17.324 5.764 17.645 5.764 17.942 5.863 C 18.24 5.961 18.497 6.152 18.677 6.408 C 18.857 6.665 18.95 6.972 18.942 7.285 L 18.942 16.585 L 23.965 19.1 C 24.259 19.247 24.495 19.488 24.634 19.786 C 24.773 20.083 24.808 20.419 24.732 20.738 C 24.657 21.058 24.475 21.343 24.217 21.546 C 23.959 21.749 23.64 21.86 23.312 21.859 Z"
        fill="#2fd8c4"/>
</svg>
