<svg
    xmlns="http://www.w3.org/2000/svg"
    viewBox="0 0 43 43"
    id="ic_worse">
    <path
        id="path"
        d="M 21.584 0 C 18.7 -0.015 15.844 0.564 13.193 1.7 C 8.016 3.891 3.889 8.013 1.693 13.188 C 0.559 15.832 -0.018 18.682 0 21.559 C -0.022 24.454 0.555 27.323 1.693 29.985 C 3.889 35.16 8.016 39.282 13.193 41.473 C 15.844 42.609 18.7 43.188 21.584 43.173 C 24.468 43.188 27.324 42.609 29.975 41.473 C 35.152 39.282 39.279 35.16 41.475 29.985 C 42.613 27.323 43.19 24.454 43.168 21.559 C 43.187 18.68 42.61 15.829 41.475 13.183 C 39.278 8.01 35.152 3.89 29.976 1.7 C 27.325 0.563 24.468 -0.015 21.584 0 Z M 29.267 33.1 C 29.071 33.199 28.868 33.283 28.66 33.353 C 28.464 33.419 28.259 33.453 28.053 33.453 C 27.702 33.448 27.358 33.358 27.05 33.19 C 26.742 33.023 26.479 32.783 26.284 32.491 Q 26.233 32.44 25.046 31.327 C 24.078 30.524 22.837 30.125 21.583 30.214 C 20.318 30.118 19.064 30.527 18.1 31.352 L 16.937 32.491 C 16.726 32.813 16.432 33.073 16.088 33.245 C 15.743 33.416 15.359 33.493 14.974 33.468 C 14.59 33.443 14.219 33.316 13.9 33.1 C 13.433 32.771 13.115 32.27 13.015 31.708 C 12.953 31.434 12.95 31.15 13.007 30.875 C 13.064 30.601 13.179 30.341 13.344 30.114 C 14.009 29.348 14.718 28.622 15.467 27.938 Q 17.54 25.914 21.583 25.914 Q 25.626 25.914 27.7 27.936 Q 29.773 29.96 29.874 30.112 C 30.024 30.346 30.126 30.607 30.174 30.881 C 30.222 31.155 30.214 31.435 30.152 31.706 C 30.053 32.269 29.735 32.77 29.268 33.1 Z"
        fill="#ff5353"/>
</svg>
